<svg data-v-423bf9ae="" xmlns="http://www.w3.org/2000/svg" viewBox="0 0 537.7309237393465 60" class="font"><!----><!----><!----><g data-v-423bf9ae="" id="b939fdb3-80e5-4fb8-bef6-72a14b765334" fill="white" transform="matrix(4.363636363636363,0,0,4.363636363636363,-3.3600066358392837,-15.578181288459078)"><path d="M0.77 14.35L7.81 14.35L7.81 11.83L6.73 11.83L6.73 13.62L3.15 13.62L3.15 5.25L4.21 5.25L4.21 4.58L0.77 4.58L0.77 5.25L1.83 5.25L1.83 13.68L0.77 13.68ZM10.88 5.50C11.38 5.50 11.68 5.15 11.68 4.73L11.68 4.65C11.68 4.23 11.38 3.88 10.88 3.88C10.37 3.88 10.08 4.23 10.08 4.65L10.08 4.73C10.08 5.15 10.37 5.50 10.88 5.50ZM9.21 14.35L12.56 14.35L12.56 13.68L11.51 13.68L11.51 6.96L9.21 7.39L9.21 7.90L10.26 8.09L10.26 13.68L9.21 13.68ZM13.75 14.35L17.09 14.35L17.09 13.68L16.04 13.68L16.04 9.20C16.04 8.26 16.87 7.80 17.70 7.80C18.82 7.80 19.35 8.46 19.35 9.77L19.35 13.68L18.30 13.68L18.30 14.35L21.64 14.35L21.64 13.68L20.59 13.68L20.59 9.20C20.59 8.26 21.42 7.80 22.25 7.80C23.37 7.80 23.90 8.46 23.90 9.77L23.90 13.68L22.85 13.68L22.85 14.35L26.19 14.35L26.19 13.68L25.14 13.68L25.14 9.69C25.14 7.88 24.46 6.96 22.68 6.96C21.41 6.96 20.75 7.73 20.45 8.37L20.40 8.37C20.12 7.42 19.39 6.96 18.13 6.96C17.00 6.96 16.30 7.63 16.06 8.22L16.00 8.22L16.00 6.96L13.75 7.39L13.75 7.90L14.80 8.09L14.80 13.68L13.75 13.68ZM29.57 14.52C30.87 14.52 31.43 13.93 31.71 13.30L31.78 13.30L31.78 13.34C31.78 14.06 32.21 14.52 32.98 14.52C33.43 14.52 33.80 14.39 34.01 14.24L34.01 13.71L32.96 13.71L32.96 9.20C32.96 7.78 32.03 6.96 30.49 6.96C28.73 6.96 27.73 7.77 27.73 8.60C27.73 9.16 28.07 9.45 28.55 9.45C29.05 9.45 29.37 9.16 29.37 8.64C29.37 8.22 29.12 8.01 28.90 7.88L28.90 7.85C29.16 7.71 29.61 7.63 30.04 7.63C31.15 7.63 31.71 8.26 31.71 9.38L31.71 10.42L30.69 10.42C28.25 10.42 27.38 11.16 27.38 12.56C27.38 13.76 28.21 14.52 29.57 14.52ZM30.10 13.71C29.23 13.71 28.71 13.34 28.71 12.64L28.71 12.36C28.71 11.48 29.20 11.02 30.81 11.02L31.71 11.02L31.71 12.35C31.71 13.27 30.98 13.71 30.10 13.71ZM34.99 14.35L38.33 14.35L38.33 13.68L37.28 13.68L37.28 9.18C37.28 8.25 38.16 7.80 38.98 7.80C40.14 7.80 40.67 8.46 40.67 9.77L40.67 13.68L39.62 13.68L39.62 14.35L42.97 14.35L42.97 13.68L41.92 13.68L41.92 9.67C41.92 7.87 41.22 6.96 39.42 6.96C38.26 6.96 37.56 7.63 37.34 8.20L37.28 8.20L37.28 3.57L34.99 4.00L34.99 4.51L36.04 4.70L36.04 13.68L34.99 13.68ZM47.50 13.79C46.10 13.79 45.50 12.81 45.50 11.54L45.50 9.94C45.50 8.67 46.10 7.69 47.50 7.69C48.90 7.69 49.50 8.67 49.50 9.94L49.50 11.54C49.50 12.81 48.90 13.79 47.50 13.79ZM47.50 14.52C49.55 14.52 50.92 13.02 50.92 10.74C50.92 8.46 49.55 6.96 47.50 6.96C45.46 6.96 44.09 8.46 44.09 10.74C44.09 13.02 45.46 14.52 47.50 14.52ZM52.25 14.35L55.59 14.35L55.59 13.68L54.54 13.68L54.54 9.18C54.54 8.25 55.43 7.80 56.24 7.80C57.40 7.80 57.93 8.46 57.93 9.77L57.93 13.68L56.88 13.68L56.88 14.35L60.23 14.35L60.23 13.68L59.18 13.68L59.18 9.67C59.18 7.87 58.48 6.96 56.69 6.96C55.52 6.96 54.78 7.64 54.56 8.22L54.50 8.22L54.50 6.96L52.25 7.39L52.25 7.90L53.30 8.09L53.30 13.68L52.25 13.68ZM64.46 17.32C66.88 17.32 68.15 16.39 68.15 15.04C68.15 13.79 67.34 13.09 65.67 13.09L63.99 13.09C63.17 13.09 62.82 12.95 62.82 12.47C62.82 12.05 63.28 11.73 63.77 11.65C64.01 11.69 64.25 11.72 64.51 11.72C66.15 11.72 67.37 10.81 67.37 9.34C67.37 8.62 67.10 8.19 66.88 7.91L66.88 7.28L66.92 7.28C67.07 7.46 67.31 7.55 67.55 7.55C68.03 7.55 68.31 7.27 68.31 6.86C68.31 6.43 67.98 6.16 67.55 6.16C67.00 6.16 66.50 6.44 66.49 7.55C66.04 7.22 65.41 6.96 64.51 6.96C62.87 6.96 61.67 7.87 61.67 9.34C61.67 10.36 62.24 11.10 63.14 11.47L63.14 11.54C62.50 11.72 61.92 12.14 61.92 12.88C61.92 13.50 62.24 13.89 62.83 14.10L62.83 14.15C62.09 14.35 61.32 14.84 61.32 15.58C61.32 16.63 62.15 17.32 64.46 17.32ZM64.51 11.09C63.52 11.09 63 10.53 63 9.60L63 9.07C63 8.15 63.52 7.59 64.53 7.59C65.52 7.59 66.04 8.15 66.04 9.07L66.04 9.60C66.04 10.53 65.52 11.09 64.51 11.09ZM62.41 15.51C62.41 15.01 62.65 14.57 63.24 14.29L65.48 14.29C66.68 14.29 67.12 14.66 67.12 15.34C67.12 16.10 66.26 16.59 64.86 16.59L64.19 16.59C63.11 16.59 62.41 16.24 62.41 15.51ZM70.22 7.91L70.69 7.91L71.01 5.25L71.01 3.99L69.90 3.99L69.90 5.25ZM75.77 14.52C77.41 14.52 78.39 13.58 78.39 12.39C78.39 11.16 77.64 10.49 76.17 10.18L75.36 10.01C74.63 9.86 74.17 9.41 74.17 8.78C74.17 8.04 74.73 7.69 75.68 7.69C76.76 7.69 77.25 8.05 77.25 8.76L77.25 9.31L78.16 9.31L78.16 7.13L77.25 7.13L77.25 7.70L77.20 7.70C77.01 7.25 76.40 6.96 75.52 6.96C73.99 6.96 73.02 7.74 73.02 9.02C73.02 10.23 73.75 10.95 75.17 11.24L76.03 11.42C76.79 11.58 77.21 12.01 77.21 12.63C77.21 13.45 76.59 13.78 75.53 13.78C74.35 13.78 73.91 13.23 73.91 12.45L73.91 12.17L73.00 12.17L73.00 14.35L73.91 14.35L73.91 13.65L73.96 13.65C74.17 14.08 74.89 14.52 75.77 14.52ZM83.16 14.35L86.88 14.35L86.88 13.68L85.54 13.68L85.54 9.90L88.30 9.90L88.30 11.02L89.19 11.02L89.19 8.05L88.30 8.05L88.30 9.17L85.54 9.17L85.54 5.31L89.54 5.31L89.54 6.96L90.62 6.96L90.62 4.58L83.16 4.58L83.16 5.25L84.22 5.25L84.22 13.68L83.16 13.68ZM93.41 5.50C93.91 5.50 94.21 5.15 94.21 4.73L94.21 4.65C94.21 4.23 93.91 3.88 93.41 3.88C92.90 3.88 92.61 4.23 92.61 4.65L92.61 4.73C92.61 5.15 92.90 5.50 93.41 5.50ZM91.74 14.35L95.09 14.35L95.09 13.68L94.04 13.68L94.04 6.96L91.74 7.39L91.74 7.90L92.79 8.09L92.79 13.68L91.74 13.68ZM96.28 14.35L99.62 14.35L99.62 13.68L98.57 13.68L98.57 9.18C98.57 8.25 99.46 7.80 100.27 7.80C101.43 7.80 101.96 8.46 101.96 9.77L101.96 13.68L100.91 13.68L100.91 14.35L104.26 14.35L104.26 13.68L103.21 13.68L103.21 9.67C103.21 7.87 102.51 6.96 100.72 6.96C99.55 6.96 98.81 7.64 98.59 8.22L98.53 8.22L98.53 6.96L96.28 7.39L96.28 7.90L97.33 8.09L97.33 13.68L96.28 13.68ZM108.75 14.52C110.32 14.52 111.29 13.59 111.65 12.60L111.16 12.29C110.77 13.05 110.11 13.57 108.95 13.57C107.63 13.57 106.76 12.60 106.76 11.06L106.76 10.71L111.80 10.71L111.80 10.37C111.80 8.39 110.63 6.96 108.68 6.96C106.79 6.96 105.38 8.50 105.38 10.74C105.38 12.99 106.61 14.52 108.75 14.52ZM106.76 9.84C106.76 8.58 107.42 7.66 108.68 7.66C109.96 7.66 110.49 8.62 110.49 9.88L110.49 10.04L106.76 10.04ZM116.05 14.52C117.68 14.52 118.66 13.58 118.66 12.39C118.66 11.16 117.92 10.49 116.45 10.18L115.64 10.01C114.91 9.86 114.45 9.41 114.45 8.78C114.45 8.04 115.01 7.69 115.96 7.69C117.04 7.69 117.53 8.05 117.53 8.76L117.53 9.31L118.44 9.31L118.44 7.13L117.53 7.13L117.53 7.70L117.47 7.70C117.29 7.25 116.68 6.96 115.79 6.96C114.27 6.96 113.30 7.74 113.30 9.02C113.30 10.23 114.03 10.95 115.44 11.24L116.31 11.42C117.07 11.58 117.49 12.01 117.49 12.63C117.49 13.45 116.87 13.78 115.81 13.78C114.63 13.78 114.18 13.23 114.18 12.45L114.18 12.17L113.27 12.17L113.27 14.35L114.18 14.35L114.18 13.65L114.24 13.65C114.45 14.08 115.16 14.52 116.05 14.52ZM122.26 14.43C122.93 14.43 123.68 14.29 124.00 14.11L124.00 13.62L122.11 13.62L122.11 7.85L124.00 7.85L124.00 7.13L122.11 7.13L122.11 5.25L121.44 5.25L121.09 6.50C120.96 6.92 120.85 7.13 120.04 7.13L119.92 7.13L119.92 7.85L120.86 7.85L120.86 13.03C120.86 14.06 121.20 14.43 122.26 14.43Z"></path></g><!----><!----></svg>